<?xml version="1.0" standalone="no"?>
<!DOCTYPE svg PUBLIC "-//W3C//DTD SVG 20010904//EN"
 "http://www.w3.org/TR/2001/REC-SVG-20010904/DTD/svg10.dtd">
<svg version="1.0" xmlns="http://www.w3.org/2000/svg"
 width="88.000000pt" height="88.000000pt" viewBox="0 0 88.000000 88.000000"
 preserveAspectRatio="xMidYMid meet">
<metadata>
Created by potrace 1.11, written by Peter Selinger 2001-2013
</metadata>
<g transform="translate(0.000000,88.000000) scale(0.100000,-0.100000)"
fill="#000000" stroke="none">
<path d="M51 678 c2 -52 0 -64 -14 -66 -21 -4 -21 -8 -2 -62 20 -56 19 -67 -6
-73 l-22 -6 21 -35 c23 -39 34 -52 118 -138 71 -74 166 -127 245 -137 51 -6
156 3 189 16 8 3 24 8 35 10 11 2 22 8 23 13 2 6 7 8 11 6 9 -6 101 79 101 93
0 6 5 11 10 11 6 0 10 6 10 13 0 6 22 28 50 47 27 19 49 38 50 42 0 3 -22 40
-50 81 -27 41 -50 79 -50 84 0 21 -98 111 -145 134 -48 23 -59 24 -313 27
l-263 3 2 -63z m607 -24 c47 -19 88 -58 114 -108 31 -60 23 -161 -18 -218
-115 -164 -362 -106 -399 94 -16 85 47 194 135 232 46 20 121 20 168 0z"/>
<path d="M657 532 c-21 -23 -22 -51 -1 -80 23 -34 83 -27 104 11 13 24 13 30
0 55 -20 35 -77 43 -103 14z"/>
</g>
</svg>
